<svg width="370" height="140" viewBox="0 0 370 140" fill="none" xmlns="http://www.w3.org/2000/svg">
<rect x="0.5" y="0.5" width="369" height="139" rx="19.5" stroke="#363636"/>
<path d="M97.06 63V77H95.6V70.54H86.84V77H85.36V63H86.84V69.24H95.6V63H97.06ZM105.066 66.4C106.439 66.4 107.492 66.7467 108.226 67.44C108.959 68.12 109.326 69.1333 109.326 70.48V77H107.966V75.36C107.646 75.9067 107.172 76.3333 106.546 76.64C105.932 76.9467 105.199 77.1 104.346 77.1C103.172 77.1 102.239 76.82 101.546 76.26C100.852 75.7 100.506 74.96 100.506 74.04C100.506 73.1467 100.826 72.4267 101.466 71.88C102.119 71.3333 103.152 71.06 104.566 71.06H107.906V70.42C107.906 69.5133 107.652 68.8267 107.146 68.36C106.639 67.88 105.899 67.64 104.926 67.64C104.259 67.64 103.619 67.7533 103.006 67.98C102.392 68.1933 101.866 68.4933 101.426 68.88L100.786 67.82C101.319 67.3667 101.959 67.02 102.706 66.78C103.452 66.5267 104.239 66.4 105.066 66.4ZM104.566 75.98C105.366 75.98 106.052 75.8 106.626 75.44C107.199 75.0667 107.626 74.5333 107.906 73.84V72.12H104.606C102.806 72.12 101.906 72.7467 101.906 74C101.906 74.6133 102.139 75.1 102.606 75.46C103.072 75.8067 103.726 75.98 104.566 75.98ZM122.546 66.48V77H121.126V67.74H114.526V77H113.106V66.48H122.546ZM126.583 66.48H128.003V74.84L135.023 66.48H136.283V77H134.863V68.64L127.863 77H126.583V66.48ZM144.752 77.1C143.712 77.1 142.779 76.8733 141.952 76.42C141.139 75.9667 140.499 75.3333 140.032 74.52C139.565 73.6933 139.332 72.7667 139.332 71.74C139.332 70.7133 139.565 69.7933 140.032 68.98C140.499 68.1667 141.139 67.5333 141.952 67.08C142.779 66.6267 143.712 66.4 144.752 66.4C145.659 66.4 146.465 66.58 147.172 66.94C147.892 67.2867 148.459 67.8 148.872 68.48L147.812 69.2C147.465 68.68 147.025 68.2933 146.492 68.04C145.959 67.7733 145.379 67.64 144.752 67.64C143.992 67.64 143.305 67.8133 142.692 68.16C142.092 68.4933 141.619 68.9733 141.272 69.6C140.939 70.2267 140.772 70.94 140.772 71.74C140.772 72.5533 140.939 73.2733 141.272 73.9C141.619 74.5133 142.092 74.9933 142.692 75.34C143.305 75.6733 143.992 75.84 144.752 75.84C145.379 75.84 145.959 75.7133 146.492 75.46C147.025 75.2067 147.465 74.82 147.812 74.3L148.872 75.02C148.459 75.7 147.892 76.22 147.172 76.58C146.452 76.9267 145.645 77.1 144.752 77.1ZM155.242 66.4C156.615 66.4 157.668 66.7467 158.402 67.44C159.135 68.12 159.502 69.1333 159.502 70.48V77H158.142V75.36C157.822 75.9067 157.348 76.3333 156.722 76.64C156.108 76.9467 155.375 77.1 154.522 77.1C153.348 77.1 152.415 76.82 151.722 76.26C151.028 75.7 150.682 74.96 150.682 74.04C150.682 73.1467 151.002 72.4267 151.642 71.88C152.295 71.3333 153.328 71.06 154.742 71.06H158.082V70.42C158.082 69.5133 157.828 68.8267 157.322 68.36C156.815 67.88 156.075 67.64 155.102 67.64C154.435 67.64 153.795 67.7533 153.182 67.98C152.568 68.1933 152.042 68.4933 151.602 68.88L150.962 67.82C151.495 67.3667 152.135 67.02 152.882 66.78C153.628 66.5267 154.415 66.4 155.242 66.4ZM154.742 75.98C155.542 75.98 156.228 75.8 156.802 75.44C157.375 75.0667 157.802 74.5333 158.082 73.84V72.12H154.782C152.982 72.12 152.082 72.7467 152.082 74C152.082 74.6133 152.315 75.1 152.782 75.46C153.248 75.8067 153.902 75.98 154.742 75.98ZM170.682 67.74H166.702V77H165.282V67.74H161.302V66.48H170.682V67.74ZM177.255 70.2C178.575 70.2133 179.575 70.5067 180.255 71.08C180.948 71.6533 181.295 72.48 181.295 73.56C181.295 74.68 180.922 75.54 180.175 76.14C179.442 76.74 178.375 77.0333 176.975 77.02L172.735 77V66.48H174.155V70.16L177.255 70.2ZM176.895 75.94C177.868 75.9533 178.602 75.76 179.095 75.36C179.602 74.9467 179.855 74.3467 179.855 73.56C179.855 72.7867 179.608 72.2133 179.115 71.84C178.622 71.4667 177.882 71.2733 176.895 71.26L174.155 71.22V75.9L176.895 75.94ZM195.939 71.56C197.365 71.8933 198.079 72.7533 198.079 74.14C198.079 75.06 197.739 75.7667 197.059 76.26C196.379 76.7533 195.365 77 194.019 77H189.239V66.48H193.879C195.079 66.48 196.019 66.7133 196.699 67.18C197.379 67.6467 197.719 68.3133 197.719 69.18C197.719 69.7533 197.559 70.2467 197.239 70.66C196.932 71.06 196.499 71.36 195.939 71.56ZM190.619 71.16H193.779C194.592 71.16 195.212 71.0067 195.639 70.7C196.079 70.3933 196.299 69.9467 196.299 69.36C196.299 68.7733 196.079 68.3333 195.639 68.04C195.212 67.7467 194.592 67.6 193.779 67.6H190.619V71.16ZM193.959 75.88C194.865 75.88 195.545 75.7333 195.999 75.44C196.452 75.1467 196.679 74.6867 196.679 74.06C196.679 73.4333 196.472 72.9733 196.059 72.68C195.645 72.3733 194.992 72.22 194.099 72.22H190.619V75.88H193.959ZM209.621 64.28H204.701V63H216.021V64.28H211.101V77H209.621V64.28ZM226.152 72.18H217.352C217.432 73.2733 217.852 74.16 218.612 74.84C219.372 75.5067 220.332 75.84 221.492 75.84C222.145 75.84 222.745 75.7267 223.292 75.5C223.838 75.26 224.312 74.9133 224.712 74.46L225.512 75.38C225.045 75.94 224.458 76.3667 223.752 76.66C223.058 76.9533 222.292 77.1 221.452 77.1C220.372 77.1 219.412 76.8733 218.572 76.42C217.745 75.9533 217.098 75.3133 216.632 74.5C216.165 73.6867 215.932 72.7667 215.932 71.74C215.932 70.7133 216.152 69.7933 216.592 68.98C217.045 68.1667 217.658 67.5333 218.432 67.08C219.218 66.6267 220.098 66.4 221.072 66.4C222.045 66.4 222.918 66.6267 223.692 67.08C224.465 67.5333 225.072 68.1667 225.512 68.98C225.952 69.78 226.172 70.7 226.172 71.74L226.152 72.18ZM221.072 67.62C220.058 67.62 219.205 67.9467 218.512 68.6C217.832 69.24 217.445 70.08 217.352 71.12H224.812C224.718 70.08 224.325 69.24 223.632 68.6C222.952 67.9467 222.098 67.62 221.072 67.62ZM229.062 62.16H230.482V77H229.062V62.16ZM243.593 72.18H234.793C234.873 73.2733 235.293 74.16 236.053 74.84C236.813 75.5067 237.773 75.84 238.933 75.84C239.586 75.84 240.186 75.7267 240.733 75.5C241.28 75.26 241.753 74.9133 242.153 74.46L242.953 75.38C242.486 75.94 241.9 76.3667 241.193 76.66C240.5 76.9533 239.733 77.1 238.893 77.1C237.813 77.1 236.853 76.8733 236.013 76.42C235.186 75.9533 234.54 75.3133 234.073 74.5C233.606 73.6867 233.373 72.7667 233.373 71.74C233.373 70.7133 233.593 69.7933 234.033 68.98C234.486 68.1667 235.1 67.5333 235.873 67.08C236.66 66.6267 237.54 66.4 238.513 66.4C239.486 66.4 240.36 66.6267 241.133 67.08C241.906 67.5333 242.513 68.1667 242.953 68.98C243.393 69.78 243.613 70.7 243.613 71.74L243.593 72.18ZM238.513 67.62C237.5 67.62 236.646 67.9467 235.953 68.6C235.273 69.24 234.886 70.08 234.793 71.12H242.253C242.16 70.08 241.766 69.24 241.073 68.6C240.393 67.9467 239.54 67.62 238.513 67.62ZM256.243 66.48V75.72C256.243 77.5067 255.803 78.8267 254.923 79.68C254.057 80.5467 252.743 80.98 250.983 80.98C250.01 80.98 249.083 80.8333 248.203 80.54C247.337 80.26 246.63 79.8667 246.083 79.36L246.803 78.28C247.31 78.7333 247.923 79.0867 248.643 79.34C249.377 79.5933 250.143 79.72 250.943 79.72C252.277 79.72 253.257 79.4067 253.883 78.78C254.51 78.1667 254.823 77.2067 254.823 75.9V74.56C254.383 75.2267 253.803 75.7333 253.083 76.08C252.377 76.4267 251.59 76.6 250.723 76.6C249.737 76.6 248.837 76.3867 248.023 75.96C247.223 75.52 246.59 74.9133 246.123 74.14C245.67 73.3533 245.443 72.4667 245.443 71.48C245.443 70.4933 245.67 69.6133 246.123 68.84C246.59 68.0667 247.223 67.4667 248.023 67.04C248.823 66.6133 249.723 66.4 250.723 66.4C251.617 66.4 252.423 66.58 253.143 66.94C253.863 67.3 254.443 67.82 254.883 68.5V66.48H256.243ZM250.863 75.34C251.623 75.34 252.31 75.18 252.923 74.86C253.537 74.5267 254.01 74.0667 254.343 73.48C254.69 72.8933 254.863 72.2267 254.863 71.48C254.863 70.7333 254.69 70.0733 254.343 69.5C254.01 68.9133 253.537 68.46 252.923 68.14C252.323 67.8067 251.637 67.64 250.863 67.64C250.103 67.64 249.417 67.8 248.803 68.12C248.203 68.44 247.73 68.8933 247.383 69.48C247.05 70.0667 246.883 70.7333 246.883 71.48C246.883 72.2267 247.05 72.8933 247.383 73.48C247.73 74.0667 248.203 74.5267 248.803 74.86C249.417 75.18 250.103 75.34 250.863 75.34ZM261.574 68.54C261.908 67.8333 262.401 67.3 263.054 66.94C263.721 66.58 264.541 66.4 265.514 66.4V67.78L265.174 67.76C264.068 67.76 263.201 68.1 262.574 68.78C261.948 69.46 261.634 70.4133 261.634 71.64V77H260.214V66.48H261.574V68.54ZM271.746 66.4C273.119 66.4 274.173 66.7467 274.906 67.44C275.639 68.12 276.006 69.1333 276.006 70.48V77H274.646V75.36C274.326 75.9067 273.853 76.3333 273.226 76.64C272.613 76.9467 271.879 77.1 271.026 77.1C269.853 77.1 268.919 76.82 268.226 76.26C267.533 75.7 267.186 74.96 267.186 74.04C267.186 73.1467 267.506 72.4267 268.146 71.88C268.799 71.3333 269.833 71.06 271.246 71.06H274.586V70.42C274.586 69.5133 274.333 68.8267 273.826 68.36C273.319 67.88 272.579 67.64 271.606 67.64C270.939 67.64 270.299 67.7533 269.686 67.98C269.073 68.1933 268.546 68.4933 268.106 68.88L267.466 67.82C267.999 67.3667 268.639 67.02 269.386 66.78C270.133 66.5267 270.919 66.4 271.746 66.4ZM271.246 75.98C272.046 75.98 272.733 75.8 273.306 75.44C273.879 75.0667 274.306 74.5333 274.586 73.84V72.12H271.286C269.486 72.12 268.586 72.7467 268.586 74C268.586 74.6133 268.819 75.1 269.286 75.46C269.753 75.8067 270.406 75.98 271.246 75.98ZM292.983 66.4C294.303 66.4 295.336 66.78 296.083 67.54C296.843 68.3 297.223 69.42 297.223 70.9V77H295.803V71.04C295.803 69.9467 295.536 69.1133 295.003 68.54C294.483 67.9667 293.743 67.68 292.783 67.68C291.689 67.68 290.829 68.02 290.203 68.7C289.576 69.3667 289.263 70.2933 289.263 71.48V77H287.843V71.04C287.843 69.9467 287.576 69.1133 287.043 68.54C286.523 67.9667 285.776 67.68 284.803 67.68C283.723 67.68 282.863 68.02 282.223 68.7C281.596 69.3667 281.283 70.2933 281.283 71.48V77H279.863V66.48H281.223V68.4C281.596 67.76 282.116 67.2667 282.783 66.92C283.449 66.5733 284.216 66.4 285.083 66.4C285.963 66.4 286.723 66.5867 287.363 66.96C288.016 67.3333 288.503 67.8867 288.823 68.62C289.209 67.9267 289.763 67.3867 290.483 67C291.216 66.6 292.049 66.4 292.983 66.4Z" fill="white"/>
<g clip-path="url(#clip0_3628_3317)">
<path d="M44 94C57.2548 94 68 83.2548 68 70C68 56.7452 57.2548 46 44 46C30.7452 46 20 56.7452 20 70C20 83.2548 30.7452 94 44 94Z" fill="#039BE5"/>
<path d="M30.9815 69.4799L54.1215 60.5579C55.1955 60.1699 56.1335 60.8199 55.7855 62.4439L55.7875 62.4419L51.8475 81.0039C51.5555 82.3199 50.7735 82.6399 49.6795 82.0199L43.6795 77.5979L40.7855 80.3859C40.4655 80.7059 40.1955 80.9759 39.5755 80.9759L40.0015 74.8699L51.1215 64.8239C51.6055 64.3979 51.0135 64.1579 50.3755 64.5819L36.6335 73.2339L30.7095 71.3859C29.4235 70.9779 29.3955 70.0999 30.9815 69.4799Z" fill="white"/>
</g>
<defs>
<clipPath id="clip0_3628_3317">
<rect width="48" height="48" fill="white" transform="translate(20 46)"/>
</clipPath>
</defs>
</svg>
